<?xml version="1.0" encoding="UTF-8"?><svg id="Layer_2" xmlns="http://www.w3.org/2000/svg" viewBox="0 0 15.84 15.84"><g id="ELEMENTS"><g><path d="M0,7.94c0-2.25,0-4.51,0-6.76C0,.59,.32,.17,.84,.04,.95,0,1.07,0,1.19,0,5.68,0,10.16,0,14.64,0c.74,0,1.19,.46,1.19,1.21,0,4.47,0,8.94,0,13.42,0,.75-.57,1.22-1.22,1.21-2.11-.01-4.23,0-6.34,0-2.33,0-4.66,0-6.99,0-.13,0-.27,0-.4-.03C.35,15.7,0,15.27,0,14.7c0-1.65,0-3.31,0-4.96,0-.6,0-1.2,0-1.8Zm8.56-.95c0-.09-.01-.15-.01-.2,0-.19,0-.38,0-.56,0-.1-.04-.15-.15-.15-.72,0-1.44,0-2.15,0-.1,0-.15,.04-.15,.15,0,.11,0,.21,0,.32,0,2.18,0,4.37,0,6.55,0,.16,.05,.21,.21,.21,.65,0,1.31,0,1.96,0q.28,0,.28-.28c0-1.32,0-2.64,.01-3.95,0-.46,.23-.8,.6-1.04,.54-.35,1.54-.28,1.75,.64,.06,.28,.1,.57,.11,.85,.01,1.19,0,2.38,0,3.57,0,.16,.04,.22,.21,.21,.67,0,1.34,0,2.01,0,.18,0,.23-.05,.23-.23,0-1.29,0-2.59,0-3.88,0-.3-.02-.6-.07-.9-.26-1.44-1.07-2.24-2.43-2.37-.93-.09-1.72,.19-2.3,.95-.02,.03-.05,.06-.1,.11Zm-6.19,2.69c0,1.14,0,2.27,0,3.41,0,.16,.05,.21,.21,.21,.68,0,1.35,0,2.03,0,.16,0,.21-.05,.21-.21,0-2.27,0-4.54,0-6.81,0-.15-.05-.2-.2-.2-.67,0-1.34,0-2.01,0-.23,0-.23,0-.23,.23,0,1.12,0,2.25,0,3.37Zm1.24-4.53c.13-.02,.26-.03,.38-.06,.51-.12,.89-.53,.96-1.02,.08-.55-.16-1.04-.66-1.29-.36-.19-.74-.2-1.13-.1-.63,.15-1.04,.77-.92,1.41,.12,.65,.63,1.05,1.37,1.06Z" fill="#027470"/><path d="M8.56,6.99c.05-.06,.08-.08,.1-.11,.58-.76,1.38-1.04,2.3-.95,1.36,.13,2.16,.92,2.43,2.37,.05,.29,.07,.6,.07,.9,0,1.29,0,2.59,0,3.88,0,.18-.05,.23-.23,.23-.67,0-1.34,0-2.01,0-.17,0-.21-.06-.21-.21,0-1.19,0-2.38,0-3.57,0-.29-.04-.58-.11-.85-.21-.92-1.21-.99-1.75-.64-.37,.24-.6,.58-.6,1.04,0,1.32,0,2.64-.01,3.95q0,.28-.28,.28c-.65,0-1.31,0-1.96,0-.16,0-.21-.05-.21-.21,0-2.18,0-4.37,0-6.55,0-.11,0-.21,0-.32,0-.11,.04-.15,.15-.15,.72,0,1.44,0,2.15,0,.11,0,.15,.05,.15,.15,0,.19,0,.38,0,.56,0,.06,0,.11,.01,.2Z" fill="#fff"/><path d="M2.37,9.68c0-1.12,0-2.25,0-3.37,0-.23,0-.23,.23-.23,.67,0,1.34,0,2.01,0,.16,0,.2,.05,.2,.2,0,2.27,0,4.54,0,6.81,0,.16-.05,.21-.21,.21-.68,0-1.35,0-2.03,0-.16,0-.21-.05-.21-.21,0-1.14,0-2.27,0-3.41Z" fill="#fff"/><path d="M3.61,5.15c-.74-.01-1.25-.41-1.37-1.06-.12-.64,.29-1.25,.92-1.41,.39-.1,.77-.09,1.13,.1,.49,.26,.73,.74,.66,1.29-.07,.49-.45,.9-.96,1.02-.13,.03-.25,.04-.38,.06Z" fill="#fff"/></g></g></svg>